<svg width="48" height="48" viewBox="0 0 48 48" fill="none" xmlns="http://www.w3.org/2000/svg">
<path d="M47.9835 39.8444C48.1654 39.3527 27.2726 23.577 27.2726 23.577C24.657 21.6468 23.2813 21.6164 20.6947 23.577C20.6947 23.577 -0.167652 39.3399 0.00794189 39.8249L0.00372314 39.8285C0.00587939 39.8327 0.00934814 39.8356 0.0122544 39.8394C0.189184 40.3217 0.446546 40.7704 0.773411 41.1667C0.911504 41.3341 1.07791 41.4743 1.23794 41.6201L1.23016 41.6261C1.24291 41.6375 1.25988 41.6427 1.27263 41.6541C1.95091 42.2591 2.80629 42.651 3.75654 42.7628C3.77144 42.7646 3.78344 42.7724 3.79835 42.7742H3.85572C4.00019 42.788 4.13754 42.8227 4.28547 42.8227H43.7281C45.6703 42.8227 47.3158 41.6013 47.9694 39.8891C47.9772 39.8764 47.9892 39.8672 47.9963 39.8541L47.9835 39.8444Z" fill="#96A9B2"/>
<path d="M24.0125 21.7665L0.114014 39.6904V14.2983C0.114014 11.8233 2.11998 9.81732 4.59498 9.81732H43.43C45.905 9.81732 47.9109 11.8233 47.9109 14.2983V39.6904L24.0125 21.7665Z" fill="#B9C5C6"/>
<path d="M0.3927 12.7402L20.7969 28.7667C23.3722 30.6671 24.7267 30.6971 27.2734 28.7667L47.6456 12.7656C47.2922 12.125 46.763 11.6188 46.1579 11.2152L46.4381 10.9956C45.7542 10.373 44.88 9.96945 43.9096 9.8652L4.11692 9.86661C3.14923 9.96945 2.27361 10.3745 1.59111 10.9956L1.86926 11.2125C1.27114 11.6105 0.746888 12.1079 0.3927 12.7402Z" fill="#EDECE6"/>
<path d="M0.386037 12.7738C0.20688 13.258 20.7778 28.7905 20.7778 28.7905C23.3531 30.6909 24.7076 30.7209 27.2543 28.7905C27.2543 28.7905 47.7952 13.2706 47.6223 12.793L47.6265 12.7896C47.6244 12.7853 47.6209 12.7826 47.6181 12.7788C47.444 12.3039 47.1906 11.8621 46.8687 11.472C46.7328 11.3071 46.5689 11.1691 46.4114 11.0255L46.4191 11.0196C46.4065 11.0084 46.3898 11.0032 46.3773 10.992C45.7094 10.3963 44.8672 10.0104 43.9317 9.90027C43.9171 9.89849 43.9052 9.8909 43.8905 9.88912H43.8341C43.6919 9.87553 43.5566 9.8414 43.4109 9.8414H4.57591C2.6636 9.8414 1.04341 11.044 0.400005 12.7297C0.392318 12.7423 0.380505 12.7514 0.373474 12.7642L0.386037 12.7738Z" fill="#DCE2E2"/>
<path d="M27.3188 14.498H23.6971C23.544 14.498 23.3973 14.5588 23.2891 14.667C23.1808 14.7752 23.1201 14.922 23.1201 15.075V17.1114C23.1201 17.2645 23.1808 17.4112 23.2891 17.5195C23.3973 17.6277 23.544 17.6885 23.6971 17.6885H26.6422C26.7953 17.6885 26.9421 17.7493 27.0503 17.8575C27.1585 17.9657 27.2193 18.1125 27.2193 18.2655V19.3545C27.2193 19.5075 27.1585 19.6543 27.0503 19.7625C26.9421 19.8707 26.7953 19.9315 26.6422 19.9315H23.6971C23.544 19.9315 23.3973 19.9923 23.2891 20.1005C23.1808 20.2088 23.1201 20.3555 23.1201 20.5086V22.719C23.1201 22.872 23.1808 23.0188 23.2891 23.127C23.3973 23.2352 23.544 23.296 23.6971 23.296H27.5705C27.7235 23.296 27.8703 23.3568 27.9785 23.465C28.0867 23.5733 28.1475 23.72 28.1475 23.8731V25.0394C28.1475 25.1924 28.0867 25.3392 27.9785 25.4474C27.8703 25.5556 27.7235 25.6164 27.5705 25.6164H20.468C20.3149 25.6164 20.1682 25.5556 20.0599 25.4474C19.9517 25.3392 19.8909 25.1924 19.8909 25.0394V12.7932C19.8909 12.6402 19.9517 12.4934 20.0599 12.3852C20.1682 12.277 20.3149 12.2162 20.468 12.2162H27.4814C27.8329 12.2162 28.1027 12.5276 28.0525 12.8755L27.8901 14.0032C27.8703 14.1405 27.8016 14.2662 27.6967 14.3571C27.5918 14.4479 27.4576 14.498 27.3188 14.498Z" fill="#597B91"/>
</svg>
