<svg width="48" height="48" viewBox="0 0 48 48" fill="none" xmlns="http://www.w3.org/2000/svg">
<path d="M36 42H12C11.3635 42 10.753 41.7472 10.3029 41.2971C9.85283 40.847 9.59998 40.2365 9.59998 39.6C9.60003 37.6615 10.1918 35.7691 11.2961 34.1759C12.4004 32.5826 13.9647 31.3644 15.78 30.684L16.518 30.4068C21.3421 28.5987 26.6578 28.5987 31.482 30.4068L32.22 30.684C34.0352 31.3644 35.5995 32.5826 36.7039 34.1759C37.8082 35.7691 38.3999 37.6615 38.4 39.6C38.4 40.2365 38.1471 40.847 37.697 41.2971C37.2469 41.7472 36.6365 42 36 42Z" fill="#F2C94C" stroke="#F2C94C" stroke-width="2.4" stroke-linecap="square" stroke-linejoin="round"/>
<path d="M20.3412 23.3202C21.435 23.8821 22.6435 24.1845 23.873 24.204C25.1026 24.2235 26.3201 23.9596 27.4312 23.4328C28.5423 22.906 29.5171 22.1303 30.2802 21.166C31.0432 20.2017 31.5739 19.0747 31.8312 17.8722L31.965 17.2458C32.2189 16.058 32.2158 14.8296 31.9561 13.6431C31.6963 12.4566 31.1859 11.3393 30.459 10.3662L30.243 10.0782C29.5172 9.10746 28.5749 8.31936 27.4912 7.7765C26.4075 7.23364 25.2121 6.95099 24 6.95099C22.7879 6.95099 21.5925 7.23364 20.5088 7.7765C19.425 8.31936 18.4828 9.10746 17.757 10.0782L17.541 10.3662C16.8142 11.3392 16.3038 12.4564 16.044 13.6428C15.7843 14.8293 15.7812 16.0575 16.035 17.2452L16.1688 17.8728C16.4172 19.0332 16.9203 20.124 17.6418 21.0661C18.3633 22.0083 19.2851 22.7784 20.3406 23.3208" fill="#F2994A"/>
<path d="M20.3412 23.3202C21.435 23.8821 22.6435 24.1845 23.873 24.204C25.1026 24.2235 26.3201 23.9596 27.4312 23.4328C28.5423 22.906 29.5171 22.1303 30.2802 21.166C31.0432 20.2017 31.5739 19.0747 31.8312 17.8722L31.965 17.2458C32.2189 16.058 32.2158 14.8296 31.9561 13.6431C31.6963 12.4566 31.1859 11.3393 30.459 10.3662L30.243 10.0782C29.5172 9.10746 28.5749 8.31936 27.4912 7.7765C26.4075 7.23364 25.2121 6.95099 24 6.95099C22.7879 6.95099 21.5925 7.23364 20.5088 7.7765C19.425 8.31936 18.4828 9.10746 17.757 10.0782L17.541 10.3662C16.8142 11.3392 16.3038 12.4564 16.044 13.6428C15.7843 14.8293 15.7812 16.0575 16.035 17.2452L16.1688 17.8728C16.4172 19.0332 16.9203 20.124 17.6418 21.0661C18.3633 22.0083 19.2851 22.7784 20.3406 23.3208" stroke="#F2994A" stroke-width="2.4" stroke-linecap="round" stroke-linejoin="round"/>
</svg>
