<svg width="48" height="48" viewBox="0 0 48 48" fill="none" xmlns="http://www.w3.org/2000/svg">
<path d="M24 0C26.2031 0 28.3281 0.28125 30.375 0.84375C32.4219 1.40625 34.3359 2.21094 36.1172 3.25781C37.8984 4.30469 39.5156 5.55469 40.9688 7.00781C42.4219 8.46094 43.6719 10.0859 44.7188 11.8828C45.7656 13.6797 46.5703 15.5938 47.1328 17.625C47.6953 19.6562 47.9844 21.7813 48 24C48 26.2031 47.7188 28.3281 47.1562 30.375C46.5938 32.4219 45.7891 34.3359 44.7422 36.1172C43.6953 37.8984 42.4453 39.5156 40.9922 40.9688C39.5391 42.4219 37.9141 43.6719 36.1172 44.7188C34.3203 45.7656 32.4062 46.5703 30.375 47.1328C28.3438 47.6953 26.2187 47.9844 24 48C21.7969 48 19.6719 47.7188 17.625 47.1562C15.5781 46.5938 13.6641 45.7891 11.8828 44.7422C10.1016 43.6953 8.48438 42.4453 7.03125 40.9922C5.57812 39.5391 4.32813 37.9141 3.28125 36.1172C2.23437 34.3203 1.42969 32.4141 0.867188 30.3984C0.304688 28.3828 0.015625 26.25 0 24C0 21.7969 0.28125 19.6719 0.84375 17.625C1.40625 15.5781 2.21094 13.6641 3.25781 11.8828C4.30469 10.1016 5.55469 8.48438 7.00781 7.03125C8.46094 5.57812 10.0859 4.32813 11.8828 3.28125C13.6797 2.23437 15.5859 1.42969 17.6016 0.867188C19.6172 0.304688 21.75 0.015625 24 0ZM24 45C25.9219 45 27.7734 44.75 29.5547 44.25C31.3359 43.75 33.0078 43.0469 34.5703 42.1406C36.1328 41.2344 37.5547 40.1328 38.8359 38.8359C40.1172 37.5391 41.2109 36.125 42.1172 34.5938C43.0234 33.0625 43.7344 31.3906 44.25 29.5781C44.7656 27.7656 45.0156 25.9063 45 24C45 22.0781 44.75 20.2266 44.25 18.4453C43.75 16.6641 43.0469 14.9922 42.1406 13.4297C41.2344 11.8672 40.1328 10.4453 38.8359 9.16406C37.5391 7.88281 36.125 6.78906 34.5938 5.88281C33.0625 4.97656 31.3906 4.26562 29.5781 3.75C27.7656 3.23438 25.9063 2.98437 24 3C22.0781 3 20.2266 3.25 18.4453 3.75C16.6641 4.25 14.9922 4.95312 13.4297 5.85938C11.8672 6.76563 10.4453 7.86719 9.16406 9.16406C7.88281 10.4609 6.78906 11.875 5.88281 13.4062C4.97656 14.9375 4.26562 16.6094 3.75 18.4219C3.23438 20.2344 2.98437 22.0937 3 24C3 25.9219 3.25 27.7734 3.75 29.5547C4.25 31.3359 4.95312 33.0078 5.85938 34.5703C6.76563 36.1328 7.86719 37.5547 9.16406 38.8359C10.4609 40.1172 11.875 41.2109 13.4062 42.1172C14.9375 43.0234 16.6094 43.7344 18.4219 44.25C20.2344 44.7656 22.0937 45.0156 24 45ZM37.9922 24.375L39.1172 21H40.875L38.8828 27H37.125L36 23.625L34.875 27H33.1172L31.125 21H32.8828L34.0078 24.375L35.1328 21H36.8672L37.9922 24.375ZM27.1172 21H28.875L26.8828 27H25.125L24 23.625L22.875 27H21.1172L19.125 21H20.8828L22.0078 24.375L23.1328 21H24.8672L25.9922 24.375L27.1172 21ZM15.1172 21H16.875L14.8828 27H13.125L12 23.625L10.875 27H9.11719L7.125 21H8.88281L10.0078 24.375L11.1328 21H12.8672L13.9922 24.375L15.1172 21Z" fill="#0D99FF"/>
</svg>
